<?xml version="1.0" encoding="UTF-8" standalone="yes"?>
<!-- Created with sK1/UniConvertor (http://sk1project.org/) -->
<svg xmlns="http://www.w3.org/2000/svg" xmlns:xlink="http://www.w3.org/1999/xlink"
   fill-rule="evenodd">
  <g transform="translate(0,0)">
    <defs>
      <linearGradient id="grad1" x1="0%" y1="100%" x2="0%" y2="0%">
        <stop offset="0%" style="stop-color:#990000;stop-opacity:1" />
        <stop offset="100%" style="stop-color:#cc0000;stop-opacity:1" />
      </linearGradient>
    </defs>
    <g>
      <path style="stroke:none; fill:url(#grad1)" d="M 146.8 1.5C 102.4 7.60001 61.8 31.3 34.5 67C -4.7 118.3 -11 189.6 18.4 247.3C 42 293.5 84.6 325.7 136.9 336.7C 148.2 339.1 151.6 339.4 170 339.4C 188.4 339.4 191.8 339.1 203.1 336.7C 272 322.1 322.1 272 336.7 203.1C 339.1 191.8 339.4 188.4 339.4 170C 339.4 151.6 339.1 148.2 336.7 136.9C 319.5 55.4 250.7 -0.600006 168.7 0.0999756C 162 0.199982 152.1 0.800018 146.8 1.5zM 89.6 142.5C 96.4 144.5 99.2 147.7 99.8 154C 100.4 160.2 98.6 164.6 94.6 167.1C 92.7 168.3 92.1 169 93.1 169C 96 169 100.6 174.3 101.4 178.2C 102.9 186.5 97.7 194.6 89.3 196.9C 87.2 197.5 79.5 198 72.3 198L 59 198L 59 169.5L 59 141L 71.8 141C 80.2 141 86.4 141.5 89.6 142.5zM 144.8 143.8C 149.5 146.3 152.9 152 153 157.4C 153 161.7 149.3 168.7 145.9 170.7C 144.3 171.7 143 172.8 143 173.2C 143 173.7 146.6 179.4 151 186L 159 198L 152.1 198L 145.2 198L 138.5 187C 132.1 176.5 131.6 176 128.4 176L 125 176L 125 187L 125 198L 119 198L 113 198L 113 169.4L 113 140.8L 126.8 141.2C 138.7 141.5 141.1 141.9 144.8 143.8zM 178.2 161.9C 178.5 182.3 178.6 182.9 180.9 185.4C 185.3 190.1 196.1 189.4 198.9 184.2C 199.6 182.9 200 174.4 200 161.6L 200 141L 206.5 141L 213 141L 213 160.7C 213 171.6 212.5 182.2 211.9 184.3C 209.5 193.2 200.4 199 189 199C 179 199 171.6 195.1 168 188C 166.2 184.4 166 182.1 166 162.5L 166 141L 171.9 141L 177.9 141L 178.2 161.9zM 238 152L 238 163L 249.5 163L 261 163L 261 152L 261 141L 267 141L 273 141L 273 169.5L 273 198L 267 198L 261 198L 261 185.5L 261 172.9L 249.8 173.2L 238.5 173.5L 238.2 185.7L 237.9 198L 232 198L 226 198L 226 169.5L 226 141L 232 141L 238 141L 238 152z"/>
      <path style="stroke:none; fill:#B30000" d="M 71 157.5L 71 164L 76.3 164C 84 164 86.5 162.4 86.5 157.5C 86.5 152.6 84 151 76.3 151L 71 151L 71 157.5z"/>
      <path style="stroke:none; fill:#B30000" d="M 71 181.1L 71 188.2L 78.1 187.8C 84.1 187.5 85.5 187 87.1 185.1C 91.9 179.1 87.4 174 77.4 174L 71 174L 71 181.1z"/>
      <path style="stroke:none; fill:#B30000" d="M 125 158.6L 125 166.3L 130.6 165.7C 133.8 165.4 137 164.4 138.1 163.4C 140 161.7 140.6 156.6 139.2 154.3C 138.1 152.5 133.4 151 128.9 151L 125 151L 125 158.6z"/>
      <circle cx="170" cy="170" r="160" stroke="black" stroke-width="20" fill="none" />
    </g>
  </g>
</svg>
