<?xml version="1.0" standalone="no"?>
<!DOCTYPE svg PUBLIC "-//W3C//DTD SVG 20010904//EN"
 "http://www.w3.org/TR/2001/REC-SVG-20010904/DTD/svg10.dtd">
<svg version="1.0" xmlns="http://www.w3.org/2000/svg"
 width="450.000000pt" height="450.000000pt" viewBox="0 0 450.000000 450.000000"
 preserveAspectRatio="xMidYMid meet">
<metadata>
Created by potrace 1.11, written by Peter Selinger 2001-2013
</metadata>
<g transform="translate(0.000000,450.000000) scale(0.100000,-0.100000)"
fill="#000000" stroke="none">
<path d="M2020 4489 c-320 -32 -684 -157 -959 -328 -284 -176 -546 -438 -723
-723 -73 -118 -170 -324 -216 -458 -194 -568 -153 -1193 114 -1728 119 -241
244 -413 434 -603 338 -335 768 -548 1262 -625 137 -22 456 -24 598 -6 555 73
1066 346 1418 757 284 332 461 717 528 1155 24 155 25 480 1 635 -77 500 -293
931 -637 1275 -335 334 -745 546 -1210 626 -166 29 -450 39 -610 23z m-1130
-1779 c144 -23 217 -86 227 -197 9 -105 -31 -189 -107 -221 l-35 -15 40 -14
c51 -18 103 -68 116 -114 6 -20 10 -70 8 -112 -4 -65 -9 -82 -35 -119 -37 -54
-116 -102 -190 -117 -32 -6 -146 -11 -256 -11 l-198 0 0 465 0 465 183 0 c100
0 211 -5 247 -10z m893 -13 c72 -23 121 -61 153 -120 24 -44 28 -63 28 -127 0
-106 -41 -174 -143 -241 l-24 -15 132 -197 c72 -108 131 -199 131 -202 0 -3
-48 -4 -107 -3 l-106 3 -109 178 -110 177 -54 0 -54 0 0 -180 0 -180 -95 0
-95 0 0 466 0 466 203 -4 c147 -4 215 -9 250 -21z m597 -300 c0 -315 1 -324
23 -367 31 -62 70 -82 157 -82 110 0 161 40 180 141 5 29 10 184 10 342 l0
289 95 0 96 0 -3 -347 c-3 -342 -3 -349 -27 -401 -49 -108 -163 -177 -312
-189 -186 -14 -328 56 -391 192 -22 49 -23 59 -26 398 l-3 347 100 0 101 0 0
-323z m980 143 l0 -180 185 0 185 0 0 180 0 180 100 0 100 0 0 -465 0 -465
-100 0 -100 0 0 205 0 205 -182 -2 -183 -3 -3 -202 -2 -203 -95 0 -95 0 0 465
0 465 95 0 95 0 0 -180z"/>
<path d="M650 2454 l0 -106 106 4 c105 4 106 4 135 36 53 59 29 140 -49 162
-20 5 -72 10 -114 10 l-78 0 0 -106z"/>
<path d="M650 2070 l0 -120 83 0 c143 0 195 29 204 114 11 92 -41 126 -192
126 l-95 0 0 -120z"/>
<path d="M1520 2435 l0 -125 61 0 c130 0 184 37 184 125 0 42 -5 59 -23 78
-28 30 -90 47 -166 47 l-56 0 0 -125z"/>
</g>
</svg>
